<?xml version="1.0" encoding="utf-8"?>
<!-- Generator: Adobe Illustrator 16.0.0, SVG Export Plug-In . SVG Version: 6.00 Build 0)  -->
<!DOCTYPE svg PUBLIC "-//W3C//DTD SVG 1.1//EN" "http://www.w3.org/Graphics/SVG/1.1/DTD/svg11.dtd">
<svg version="1.1" id="Layer_1" xmlns="http://www.w3.org/2000/svg" xmlns:xlink="http://www.w3.org/1999/xlink" x="0px" y="0px"
	 width="48px" height="48px" viewBox="0 0 48 48" enable-background="new 0 0 48 48" xml:space="preserve">
<path fill="#333333" d="M31.918,8.813c-0.209-3.766-5.053-4.708-7.511-3.558c-1.326-5.151-9.398-6.627-13.165-1.769
	C7.445,0.192-1.532,3.119,2.243,9.94c-1.277-4.14,4.899-8.59,9.061-4.042C14.362,0.903,22.632,2,23.527,7.213
	c1.922-1.672,6.379-0.622,6.282,1.774c-0.078,1.866-3.064,3.688-5.443,2.434c-0.645,2.753-4.963,2.448-5.732-0.015
	c-0.198,0.034-2.091,4.384-6.008,3.629c3.154,1.51,4.698,0.869,6.275-1.142c3.239,2.646,5.624,0.809,6.611-0.809
	C27.91,13.576,32.166,12.373,31.918,8.813L31.918,8.813z"/>
<polygon class="fill" fill-rule="evenodd" clip-rule="evenodd" fill="#FF4D00" points="9.446,10.797 3.189,10.797 0.684,47.48 11.951,47.48 
	9.446,10.797 "/>
<path fill-rule="evenodd" clip-rule="evenodd" fill="#333333" d="M47.299,23.4l-11.564,6.607L35.697,23.4l-12.144,6.607L23.517,23.4
	l-11.254,5.34l1.326,18.695h33.728L47.299,23.4L47.299,23.4z M17.652,34.814h3.722c0.678,0,1.232,0.527,1.232,1.154v3.004
	c0,0.627-0.563,1.154-1.232,1.154h-3.722c-0.669,0-1.232-0.52-1.232-1.154v-3.004C16.419,35.334,16.974,34.814,17.652,34.814
	L17.652,34.814z M38.459,34.814h3.721c0.678,0,1.232,0.527,1.232,1.154v3.004c0,0.626-0.563,1.154-1.232,1.154h-3.721
	c-0.67,0-1.232-0.52-1.232-1.154v-3.004C37.227,35.334,37.779,34.814,38.459,34.814L38.459,34.814z M28.055,34.814h3.723
	c0.678,0,1.232,0.527,1.232,1.154v3.004c0,0.627-0.564,1.154-1.232,1.154h-3.723c-0.668,0-1.232-0.52-1.232-1.154v-3.004
	C26.822,35.334,27.377,34.814,28.055,34.814L28.055,34.814z"/>
</svg>
