<?xml version="1.0" encoding="utf-8"?>
<!-- Generator: Adobe Illustrator 16.0.0, SVG Export Plug-In . SVG Version: 6.00 Build 0)  -->
<!DOCTYPE svg PUBLIC "-//W3C//DTD SVG 1.1//EN" "http://www.w3.org/Graphics/SVG/1.1/DTD/svg11.dtd">
<svg version="1.1" id="Layer_1" xmlns="http://www.w3.org/2000/svg" xmlns:xlink="http://www.w3.org/1999/xlink" x="0px" y="0px"
	 width="48px" height="48px" viewBox="0 0 48 48" enable-background="new 0 0 48 48" xml:space="preserve">
<path fill-rule="evenodd" clip-rule="evenodd" fill="#333333" d="M6.813,31.968l10.096-3.5l0.662-0.248h0.441
	c1.084,1.411,3.17,2.622,5.988,2.622s4.906-1.211,5.988-2.622h0.441l10.758,3.748c1.67,0.684,3.08,1.507,3.283,3.282l1.318,11.596
	H2.211L3.529,35.25c0.102-0.896,0.494-1.722,1.055-2.313C5.143,32.347,5.984,32.326,6.813,31.968L6.813,31.968z"/>
<path fill-rule="evenodd" clip-rule="evenodd" fill="#333333" d="M33.039,16.386C33.023,23.684,28.982,29.592,24,29.592
	s-9.023-5.908-9.039-13.206c2.27,0.363,5.48,0.59,9.039,0.59S30.77,16.749,33.039,16.386L33.039,16.386z"/>
<path class="fill" fill-rule="evenodd" clip-rule="evenodd" fill="#FF4D00" d="M36.455,13.595l0.002,0.022c0,0.051-0.016,0.101-0.041,0.15
	c-0.479,1.026-5.498,1.693-11.775,1.736v0.001l-0.318,0.001H24.32L24,15.507h-0.002l-0.318-0.001h-0.002l-0.318-0.001l-0.002-0.001
	c-6.277-0.042-11.295-0.71-11.775-1.736c-0.025-0.05-0.039-0.1-0.039-0.15v-0.022c-0.023-1.134,0.941-1.897,2.498-1.842v-1.435
	c0-4.148,2.795-7.675,6.594-8.794v4.581c0,0.53,0.434,0.966,0.965,0.966l0,0c0.531,0,0.967-0.435,0.967-0.966V1.177l0.172-0.011l0,0
	l0.232-0.01h0.002l0.234-0.002h0.002h1.582l0,0c0.078,0,0.156,0,0.234,0.002h0.002c0.078,0.002,0.154,0.006,0.232,0.01h0.002
	l0.168,0.011v4.929c0,0.53,0.436,0.966,0.965,0.966h0.002c0.531,0,0.965-0.435,0.965-0.966V1.523
	c3.801,1.118,6.596,4.646,6.596,8.795v1.435C35.514,11.697,36.48,12.461,36.455,13.595L36.455,13.595z M24,8.244
	c1.727,0,3.125,1.399,3.125,3.126c0,1.726-1.398,3.125-3.125,3.125s-3.125-1.399-3.125-3.125C20.875,9.644,22.273,8.244,24,8.244
	L24,8.244z"/>
</svg>
