<?xml version="1.0" encoding="utf-8"?>
<!-- Generator: Adobe Illustrator 16.0.0, SVG Export Plug-In . SVG Version: 6.00 Build 0)  -->
<!DOCTYPE svg PUBLIC "-//W3C//DTD SVG 1.1//EN" "http://www.w3.org/Graphics/SVG/1.1/DTD/svg11.dtd">
<svg version="1.1" id="Layer_1" xmlns="http://www.w3.org/2000/svg" xmlns:xlink="http://www.w3.org/1999/xlink" x="0px" y="0px"
	 width="48px" height="48px" viewBox="0 0 48 48" enable-background="new 0 0 48 48" xml:space="preserve">
<path fill-rule="evenodd" clip-rule="evenodd" fill="#333333" d="M23.714,1.232c1.73,0,3.131,1.402,3.131,3.131
	c0,1.73-1.4,3.131-3.131,3.131c-1.729,0-3.131-1.4-3.131-3.131C20.583,2.635,21.985,1.232,23.714,1.232L23.714,1.232z"/>
<path fill="#333333" d="M24.776,6.68c-0.041-0.605-0.564-1.064-1.17-1.023c-0.605,0.039-1.063,0.563-1.023,1.168
	c0.018,0.271,0.004,0.537-0.01,0.783c-0.082,1.426-0.141,2.469,2.357,3.668c0.438,0.211,0.814,0.545,1.08,0.951
	c0.246,0.379,0.391,0.818,0.391,1.277c0,0.721-0.291,1.375-0.764,1.846c-0.473,0.473-1.125,0.766-1.846,0.766
	c-0.566,0-1.088-0.176-1.508-0.473l0.002-0.002l-0.002-0.002l0.002-0.002c-0.02-0.014-0.039-0.027-0.059-0.039
	c-0.412-0.309-0.73-0.734-0.902-1.227c-0.199-0.57-0.824-0.873-1.396-0.674s-0.875,0.824-0.676,1.396
	c0.324,0.922,0.918,1.715,1.688,2.281c0.021,0.02,0.047,0.039,0.072,0.057l0.637-0.898l-0.633,0.895
	c0.789,0.559,1.748,0.889,2.775,0.889c1.328,0,2.531-0.539,3.402-1.41s1.408-2.074,1.408-3.402c0-0.893-0.279-1.746-0.752-2.473
	c-0.482-0.738-1.172-1.348-1.975-1.732c-1.168-0.563-1.145-0.988-1.111-1.572C24.782,7.412,24.802,7.072,24.776,6.68L24.776,6.68z"
	/>
<path fill="#333333" d="M18.913,17.135l-8.492,6.045H7.009l10.93-7.777C18.169,16.035,18.501,16.619,18.913,17.135L18.913,17.135z"
	/>
<path fill="#333333" d="M29.671,15.184l11.32,7.996h-3.412l-8.822-6.221C29.151,16.426,29.462,15.828,29.671,15.184L29.671,15.184z"
	/>
<path class="fill" fill-rule="evenodd" clip-rule="evenodd" fill="#FF4D00" d="M4.351,24.369h39.299c1.018,0,1.852,0.834,1.852,1.852v18.695
	c0,1.018-0.834,1.852-1.852,1.852H4.351c-1.02,0-1.852-0.834-1.852-1.852V26.221C2.499,25.203,3.331,24.369,4.351,24.369
	L4.351,24.369z M10.552,28.074c0-0.549-0.445-0.992-0.992-0.992s-0.992,0.443-0.992,0.992v14.643c0,0.547,0.445,0.992,0.992,0.992
	s0.992-0.445,0.992-0.992V28.074L10.552,28.074z M20.179,28.189c0-0.549-0.445-0.992-0.992-0.992s-0.992,0.443-0.992,0.992v14.643
	c0,0.547,0.445,0.992,0.992,0.992s0.992-0.445,0.992-0.992V28.189L20.179,28.189z M29.806,28.305c0-0.547-0.445-0.992-0.992-0.992
	c-0.549,0-0.992,0.445-0.992,0.992v14.643c0,0.549,0.443,0.992,0.992,0.992c0.547,0,0.992-0.443,0.992-0.992V28.305L29.806,28.305z
	 M39.433,28.42c0-0.547-0.445-0.992-0.992-0.992c-0.549,0-0.992,0.445-0.992,0.992v14.643c0,0.549,0.443,0.992,0.992,0.992
	c0.547,0,0.992-0.443,0.992-0.992V28.42L39.433,28.42z"/>
</svg>
