<?xml version="1.0" encoding="utf-8"?>
<!-- Generator: Adobe Illustrator 16.0.0, SVG Export Plug-In . SVG Version: 6.00 Build 0)  -->
<!DOCTYPE svg PUBLIC "-//W3C//DTD SVG 1.1//EN" "http://www.w3.org/Graphics/SVG/1.1/DTD/svg11.dtd">
<svg version="1.1" id="Layer_1" xmlns="http://www.w3.org/2000/svg" xmlns:xlink="http://www.w3.org/1999/xlink" x="0px" y="0px"
	 width="48px" height="48px" viewBox="0 0 48 48" enable-background="new 0 0 48 48" xml:space="preserve">
<polygon fill-rule="evenodd" clip-rule="evenodd" fill="#333333" points="10.223,19.04 1.297,6.83 1.297,47.051 23.584,47.051 
	9.232,28.752 10.223,19.04 "/>
<path  class="fill" fill-rule="evenodd" clip-rule="evenodd" fill="#FF4D00" d="M16.33,7.118l1.925-1.925c0.446-0.446,1.178-0.443,1.621,0
	l0.838,0.838c-1.321,0.929-2.575,2.135-3.545,3.546L16.33,8.739C15.885,8.292,15.884,7.563,16.33,7.118L16.33,7.118z M27.766,12.512
	l18.608,18.609c0.439,0.438,0.438,1.182,0,1.621l-2.378,2.377c-0.438,0.438-1.175,0.446-1.621,0L23.767,16.511L27.766,12.512
	L27.766,12.512z"/>
<path fill-rule="evenodd" clip-rule="evenodd" fill="#333333" d="M19.81,8.561c5.355-5.355,12.266-7.946,18.562-7.578
	c-4.39,1.957-8.89,4.884-13.104,8.677l1.686,1.686l-4.356,4.356l-1.687-1.686c-3.793,4.215-6.72,8.716-8.677,13.104
	C11.863,20.827,14.454,13.916,19.81,8.561L19.81,8.561z"/>
<polygon fill-rule="evenodd" clip-rule="evenodd" fill="#333333" points="27.005,28.447 20.581,28.269 18.44,35.049 27.539,37.902 
	27.005,28.447 "/>
<polygon fill-rule="evenodd" clip-rule="evenodd" fill="#333333" points="12.847,28.699 15.18,32.664 16.859,28.139 12.847,28.699 
	"/>
<polygon fill-rule="evenodd" clip-rule="evenodd" fill="#333333" points="29.323,39.432 22.875,41.372 28.042,44.953 29.323,39.432 
	"/>
</svg>
