<?xml version="1.0" encoding="utf-8"?>
<!-- Generator: Adobe Illustrator 16.0.0, SVG Export Plug-In . SVG Version: 6.00 Build 0)  -->
<!DOCTYPE svg PUBLIC "-//W3C//DTD SVG 1.1//EN" "http://www.w3.org/Graphics/SVG/1.1/DTD/svg11.dtd">
<svg version="1.1" id="Layer_1" xmlns="http://www.w3.org/2000/svg" xmlns:xlink="http://www.w3.org/1999/xlink" x="0px" y="0px"
	 width="48px" height="48px" viewBox="0 0 48 48" enable-background="new 0 0 48 48" xml:space="preserve">
<path fill-rule="evenodd" clip-rule="evenodd" d="M24,40.002c-1.502,0-12-15.375-12-22.002c0-6.626,5.372-12,12-12s12,5.374,12,12
	C36,24.627,25.44,40.002,24,40.002L24,40.002z M24,8c-5.523,0-10,4.478-10,10c0,5.523,9.79,20,10,20c0.148,0,10-14.477,10-20
	C34,12.478,29.523,8,24,8L24,8z M24,23c-2.761,0-5-2.238-5-5c0-2.761,2.24-4.999,5-4.999s5.001,2.238,5.001,4.999
	C29.001,20.762,26.761,23,24,23L24,23z M24,15c-1.657,0-3,1.343-3,3c0,1.658,1.343,3,3,3c1.656,0,3-1.342,3-3
	C27,16.343,25.656,15,24,15L24,15z"/>
</svg>
