<?xml version="1.0" encoding="utf-8"?>
<!-- Generator: Adobe Illustrator 16.0.0, SVG Export Plug-In . SVG Version: 6.00 Build 0)  -->
<!DOCTYPE svg PUBLIC "-//W3C//DTD SVG 1.1//EN" "http://www.w3.org/Graphics/SVG/1.1/DTD/svg11.dtd">
<svg version="1.1" id="Layer_1" xmlns="http://www.w3.org/2000/svg" xmlns:xlink="http://www.w3.org/1999/xlink" x="0px" y="0px"
	 width="60px" height="60px" viewBox="0 0 60 60" enable-background="new 0 0 60 60" xml:space="preserve">
<g>
	
		<rect x="9" y="17" fill="none" stroke="#A7A6A6" stroke-width="2" stroke-linecap="round" stroke-linejoin="round" stroke-miterlimit="10" width="30" height="42"/>
	<path fill="none" stroke="#A7A6A6" stroke-width="2" stroke-linecap="round" stroke-linejoin="round" stroke-miterlimit="10" d="
		M9,41H1V9c0-4.179,3.386-8,7.565-8S16,4.821,16,9s-2.82,8-7,8v-6h6.769"/>
	<path fill="none" stroke="#A7A6A6" stroke-width="2" stroke-linecap="round" stroke-linejoin="round" stroke-miterlimit="10" d="
		M39,17c4.18,0,8-3.821,8-8s-3.82-8-8-8H9"/>
	
		<line fill="none" stroke="#A7A6A6" stroke-width="2" stroke-linecap="round" stroke-linejoin="round" stroke-miterlimit="10" x1="24" y1="27" x2="34" y2="27"/>
	
		<line fill="none" stroke="#A7A6A6" stroke-width="2" stroke-linecap="round" stroke-linejoin="round" stroke-miterlimit="10" x1="24" y1="37" x2="34" y2="37"/>
	
		<line fill="none" stroke="#A7A6A6" stroke-width="2" stroke-linecap="round" stroke-linejoin="round" stroke-miterlimit="10" x1="24" y1="47" x2="34" y2="47"/>
	
		<polyline fill="none" stroke="#A7A6A6" stroke-width="2" stroke-linecap="round" stroke-linejoin="round" stroke-miterlimit="10" points="
		14,25 15,26 20,21 	"/>
	
		<polyline fill="none" stroke="#A7A6A6" stroke-width="2" stroke-linecap="round" stroke-linejoin="round" stroke-miterlimit="10" points="
		14,35 15,36 20,31 	"/>
	<path fill="none" stroke="#A7A6A6" stroke-width="2" stroke-linecap="round" stroke-linejoin="round" stroke-miterlimit="10" d="
		M59,54c0,3-2,5-4,5c-2.09,0-4-1.911-4-4V18c0-1,1.91-3,4-3s4,2,4,3V54z"/>
	
		<line fill="none" stroke="#A7A6A6" stroke-width="2" stroke-linecap="round" stroke-linejoin="round" stroke-miterlimit="10" x1="51" y1="53" x2="59" y2="53"/>
	
		<line fill="none" stroke="#A7A6A6" stroke-width="2" stroke-linecap="round" stroke-linejoin="round" stroke-miterlimit="10" x1="51" y1="37" x2="59" y2="37"/>
	<path fill="none" stroke="#A7A6A6" stroke-width="2" stroke-linecap="round" stroke-linejoin="round" stroke-miterlimit="10" d="
		M47,40.087V22c0-3,2-4,4-4"/>
</g>
</svg>
