<?xml version="1.0" encoding="utf-8"?>
<!-- Generator: Adobe Illustrator 16.0.0, SVG Export Plug-In . SVG Version: 6.00 Build 0)  -->
<!DOCTYPE svg PUBLIC "-//W3C//DTD SVG 1.1//EN" "http://www.w3.org/Graphics/SVG/1.1/DTD/svg11.dtd">
<svg version="1.1" id="Layer_1" xmlns="http://www.w3.org/2000/svg" xmlns:xlink="http://www.w3.org/1999/xlink" x="0px" y="0px"
	 width="60px" height="60px" viewBox="0 0 60 60" enable-background="new 0 0 60 60" xml:space="preserve">
<g>
	<path fill="none" stroke="#A7A6A6" stroke-width="2" stroke-linecap="round" stroke-linejoin="round" stroke-miterlimit="10" d="
		M49,11c0-1.393-1.607-3-3-3c-2.785,0-5,3.215-5,6c0,4.179,3.822,7,8,7c5.572,0,10-4.43,10-10c0-5.571-4.428-10-10-10H11
		C5.428,1,1,5.429,1,11c0,5.57,4.428,10,10,10c4.178,0,8-2.821,8-7c0-2.785-2.215-6-5-6c-1.393,0-3,1.607-3,3"/>
	
		<line fill="none" stroke="#A7A6A6" stroke-width="2" stroke-linecap="round" stroke-linejoin="round" stroke-miterlimit="10" x1="25" y1="19" x2="25" y2="59"/>
	
		<line fill="none" stroke="#A7A6A6" stroke-width="2" stroke-linecap="round" stroke-linejoin="round" stroke-miterlimit="10" x1="35" y1="19" x2="35" y2="59"/>
	
		<line fill="none" stroke="#A7A6A6" stroke-width="2" stroke-linecap="round" stroke-linejoin="round" stroke-miterlimit="10" x1="16.646" y1="19" x2="43.354" y2="19"/>
	
		<line fill="none" stroke="#A7A6A6" stroke-width="2" stroke-linecap="round" stroke-linejoin="round" stroke-miterlimit="10" x1="18.909" y1="13" x2="41.09" y2="13"/>
	
		<line fill="none" stroke="#A7A6A6" stroke-width="2" stroke-linecap="round" stroke-linejoin="round" stroke-miterlimit="10" x1="16.646" y1="19" x2="16.646" y2="59"/>
	
		<line fill="none" stroke="#A7A6A6" stroke-width="2" stroke-linecap="round" stroke-linejoin="round" stroke-miterlimit="10" x1="43.354" y1="19" x2="43.354" y2="59"/>
</g>
</svg>
