<?xml version="1.0" encoding="utf-8"?>
<!-- Generator: Adobe Illustrator 16.0.0, SVG Export Plug-In . SVG Version: 6.00 Build 0)  -->
<!DOCTYPE svg PUBLIC "-//W3C//DTD SVG 1.1//EN" "http://www.w3.org/Graphics/SVG/1.1/DTD/svg11.dtd">
<svg version="1.1" id="Layer_1" xmlns="http://www.w3.org/2000/svg" xmlns:xlink="http://www.w3.org/1999/xlink" x="0px" y="0px"
	 width="28px" height="28px" viewBox="0 0 28 28" enable-background="new 0 0 28 28" xml:space="preserve">
<polyline class="stroke" fill="none" stroke="#A7A6A6" stroke-width="2" stroke-linecap="round" stroke-linejoin="round" stroke-miterlimit="10" points="
	9.5,14.643 12.071,17.215 18.5,10.786 "/>
<g>
	<path class="fill" fill="#A7A6A6" d="M14,2c6.617,0,12,5.383,12,12c0,6.617-5.383,12-12,12C7.383,26,2,20.617,2,14C2,7.383,7.383,2,14,2 M14,0
		C6.268,0,0,6.268,0,14c0,7.732,6.268,14,14,14c7.732,0,14-6.268,14-14C28,6.268,21.732,0,14,0L14,0z"/>
</g>
</svg>
