<?xml version="1.0" encoding="utf-8"?>
<!-- Generator: Adobe Illustrator 18.1.0, SVG Export Plug-In . SVG Version: 6.00 Build 0)  -->
<svg version="1.1" baseProfile="tiny" id="Layer_1" xmlns="http://www.w3.org/2000/svg" xmlns:xlink="http://www.w3.org/1999/xlink"
	 x="0px" y="0px" width="72px" height="72px" viewBox="0 0 72 72" xml:space="preserve">
<polygon id="aaa" fill="#F28826" stroke="#FFFFFF" stroke-width="2" stroke-miterlimit="10" points="60.8,51.3 34.5,66.2 8.5,50.8 8.8,20.7 
	35,5.8 61,21.2 "/>
<path  class="bb" fill="#FFFFFF" d="M43.4,33.6c0,4.9-8.6,16.1-8.6,16.1s-8.6-11.3-8.6-16.1s3.9-8.8,8.6-8.8S43.4,28.7,43.4,33.6z M34.8,30.5
	c-1.7,0-3.1,1.4-3.1,3.1c0,1.7,1.4,3.1,3.1,3.1s3.1-1.4,3.1-3.1C37.9,31.9,36.5,30.5,34.8,30.5z"/>
</svg>
